<mxfile host="app.diagrams.net" agent="Mozilla/5.0 (Windows NT 10.0; Win64; x64; rv:131.0) Gecko/20100101 Firefox/131.0" version="24.7.17" pages="2">
  <diagram id="C5RBs43oDa-KdzZeNtuy" name="Page-1">
    <mxGraphModel dx="2963" dy="1580" grid="1" gridSize="10" guides="1" tooltips="1" connect="1" arrows="1" fold="1" page="1" pageScale="1" pageWidth="827" pageHeight="1169" math="0" shadow="0">
      <root>
        <mxCell id="WIyWlLk6GJQsqaUBKTNV-0" />
        <mxCell id="WIyWlLk6GJQsqaUBKTNV-1" parent="WIyWlLk6GJQsqaUBKTNV-0" />
        <mxCell id="WIyWlLk6GJQsqaUBKTNV-2" value="" style="rounded=0;html=1;jettySize=auto;orthogonalLoop=1;fontSize=11;endArrow=block;endFill=0;endSize=8;strokeWidth=1;shadow=0;labelBackgroundColor=none;edgeStyle=orthogonalEdgeStyle;" parent="WIyWlLk6GJQsqaUBKTNV-1" source="WIyWlLk6GJQsqaUBKTNV-3" edge="1">
          <mxGeometry relative="1" as="geometry">
            <mxPoint x="230" y="370" as="targetPoint" />
          </mxGeometry>
        </mxCell>
        <mxCell id="WIyWlLk6GJQsqaUBKTNV-3" value="Atmospheric Patch" style="rounded=1;whiteSpace=wrap;html=1;fontSize=12;glass=0;strokeWidth=1;shadow=0;" parent="WIyWlLk6GJQsqaUBKTNV-1" vertex="1">
          <mxGeometry x="290" y="260" width="120" height="40" as="geometry" />
        </mxCell>
        <mxCell id="ySBLS_aSn05otulw671X-0" value="NGS + LGS (GPAO)" style="rounded=0;whiteSpace=wrap;html=1;" vertex="1" parent="WIyWlLk6GJQsqaUBKTNV-1">
          <mxGeometry x="190" y="150" width="80" height="40" as="geometry" />
        </mxCell>
        <mxCell id="ySBLS_aSn05otulw671X-1" value="Science" style="rounded=0;whiteSpace=wrap;html=1;" vertex="1" parent="WIyWlLk6GJQsqaUBKTNV-1">
          <mxGeometry x="310" y="150" width="80" height="40" as="geometry" />
        </mxCell>
        <mxCell id="ySBLS_aSn05otulw671X-2" value="Fringe tracking Star" style="rounded=0;whiteSpace=wrap;html=1;" vertex="1" parent="WIyWlLk6GJQsqaUBKTNV-1">
          <mxGeometry x="430" y="150" width="80" height="40" as="geometry" />
        </mxCell>
        <mxCell id="ySBLS_aSn05otulw671X-3" value="" style="endArrow=classic;startArrow=classic;html=1;rounded=0;exitX=0.5;exitY=0;exitDx=0;exitDy=0;entryX=0.5;entryY=0;entryDx=0;entryDy=0;" edge="1" parent="WIyWlLk6GJQsqaUBKTNV-1" source="ySBLS_aSn05otulw671X-1" target="ySBLS_aSn05otulw671X-2">
          <mxGeometry width="50" height="50" relative="1" as="geometry">
            <mxPoint x="364" y="80" as="sourcePoint" />
            <mxPoint x="414" y="30" as="targetPoint" />
            <Array as="points">
              <mxPoint x="410" y="90" />
            </Array>
          </mxGeometry>
        </mxCell>
        <mxCell id="ySBLS_aSn05otulw671X-4" value="&lt;div&gt;Can be the same&lt;/div&gt;using a 50/50 split" style="rounded=0;whiteSpace=wrap;html=1;" vertex="1" parent="WIyWlLk6GJQsqaUBKTNV-1">
          <mxGeometry x="350" y="40" width="120" height="50" as="geometry" />
        </mxCell>
        <mxCell id="ySBLS_aSn05otulw671X-5" value="" style="endArrow=classic;html=1;rounded=0;exitX=0.5;exitY=1;exitDx=0;exitDy=0;entryX=0.5;entryY=0;entryDx=0;entryDy=0;fillColor=#e1d5e7;strokeColor=#9673a6;" edge="1" parent="WIyWlLk6GJQsqaUBKTNV-1" source="ySBLS_aSn05otulw671X-2" target="WIyWlLk6GJQsqaUBKTNV-3">
          <mxGeometry width="50" height="50" relative="1" as="geometry">
            <mxPoint x="800" y="530" as="sourcePoint" />
            <mxPoint x="850" y="480" as="targetPoint" />
          </mxGeometry>
        </mxCell>
        <mxCell id="ySBLS_aSn05otulw671X-6" value="" style="endArrow=classic;html=1;rounded=0;entryX=0.5;entryY=0;entryDx=0;entryDy=0;exitX=0.5;exitY=1;exitDx=0;exitDy=0;fillColor=#d5e8d4;strokeColor=#82b366;" edge="1" parent="WIyWlLk6GJQsqaUBKTNV-1" source="ySBLS_aSn05otulw671X-1" target="WIyWlLk6GJQsqaUBKTNV-3">
          <mxGeometry width="50" height="50" relative="1" as="geometry">
            <mxPoint x="60" y="315" as="sourcePoint" />
            <mxPoint x="60" y="245" as="targetPoint" />
          </mxGeometry>
        </mxCell>
        <mxCell id="ySBLS_aSn05otulw671X-7" value="" style="endArrow=classic;html=1;rounded=0;entryX=0.5;entryY=0;entryDx=0;entryDy=0;exitX=0.5;exitY=1;exitDx=0;exitDy=0;fillColor=#dae8fc;strokeColor=#6c8ebf;" edge="1" parent="WIyWlLk6GJQsqaUBKTNV-1" source="ySBLS_aSn05otulw671X-0" target="WIyWlLk6GJQsqaUBKTNV-3">
          <mxGeometry width="50" height="50" relative="1" as="geometry">
            <mxPoint x="364" y="200" as="sourcePoint" />
            <mxPoint x="364" y="270" as="targetPoint" />
          </mxGeometry>
        </mxCell>
        <mxCell id="ySBLS_aSn05otulw671X-8" value="&lt;div&gt;UT1&lt;/div&gt;&lt;div&gt;(M1-M8)&lt;br&gt;&lt;/div&gt;&lt;div&gt;XY coordinates&lt;br&gt;&lt;/div&gt;" style="rounded=0;whiteSpace=wrap;html=1;" vertex="1" parent="WIyWlLk6GJQsqaUBKTNV-1">
          <mxGeometry x="170" y="370" width="120" height="60" as="geometry" />
        </mxCell>
        <mxCell id="ySBLS_aSn05otulw671X-9" value="" style="rounded=0;html=1;jettySize=auto;orthogonalLoop=1;fontSize=11;endArrow=block;endFill=0;endSize=8;strokeWidth=1;shadow=0;labelBackgroundColor=none;edgeStyle=orthogonalEdgeStyle;exitX=1;exitY=0.5;exitDx=0;exitDy=0;" edge="1" parent="WIyWlLk6GJQsqaUBKTNV-1" source="WIyWlLk6GJQsqaUBKTNV-3">
          <mxGeometry relative="1" as="geometry">
            <mxPoint x="304" y="290" as="sourcePoint" />
            <mxPoint x="480" y="370" as="targetPoint" />
          </mxGeometry>
        </mxCell>
        <mxCell id="ySBLS_aSn05otulw671X-10" value="&lt;div&gt;UT2&lt;/div&gt;&lt;div&gt;(M1-M8)&lt;/div&gt;&lt;div&gt;XY coordinates&lt;br&gt;&lt;/div&gt;" style="rounded=0;whiteSpace=wrap;html=1;" vertex="1" parent="WIyWlLk6GJQsqaUBKTNV-1">
          <mxGeometry x="420" y="370" width="120" height="60" as="geometry" />
        </mxCell>
        <mxCell id="ySBLS_aSn05otulw671X-12" value="" style="endArrow=classic;startArrow=classic;html=1;rounded=0;exitX=1;exitY=0.5;exitDx=0;exitDy=0;entryX=0;entryY=0.5;entryDx=0;entryDy=0;" edge="1" parent="WIyWlLk6GJQsqaUBKTNV-1" source="ySBLS_aSn05otulw671X-8" target="ySBLS_aSn05otulw671X-10">
          <mxGeometry width="50" height="50" relative="1" as="geometry">
            <mxPoint x="800" y="530" as="sourcePoint" />
            <mxPoint x="850" y="480" as="targetPoint" />
          </mxGeometry>
        </mxCell>
        <mxCell id="ySBLS_aSn05otulw671X-13" value="Differential piston" style="edgeLabel;html=1;align=center;verticalAlign=middle;resizable=0;points=[];" vertex="1" connectable="0" parent="ySBLS_aSn05otulw671X-12">
          <mxGeometry relative="1" as="geometry">
            <mxPoint as="offset" />
          </mxGeometry>
        </mxCell>
        <mxCell id="ySBLS_aSn05otulw671X-64" style="edgeStyle=orthogonalEdgeStyle;rounded=0;orthogonalLoop=1;jettySize=auto;html=1;exitX=0.5;exitY=1;exitDx=0;exitDy=0;entryX=0.5;entryY=0;entryDx=0;entryDy=0;" edge="1" parent="WIyWlLk6GJQsqaUBKTNV-1" source="ySBLS_aSn05otulw671X-16" target="ySBLS_aSn05otulw671X-22">
          <mxGeometry relative="1" as="geometry">
            <mxPoint x="229" y="760" as="targetPoint" />
          </mxGeometry>
        </mxCell>
        <mxCell id="ySBLS_aSn05otulw671X-16" value="&lt;div&gt;Beam transport&lt;/div&gt;&lt;div&gt;&amp;nbsp;&amp;amp;&lt;br&gt;&lt;/div&gt;&lt;div&gt;Main + BCDDL delay lines&lt;br&gt;&lt;/div&gt;" style="rounded=1;whiteSpace=wrap;html=1;" vertex="1" parent="WIyWlLk6GJQsqaUBKTNV-1">
          <mxGeometry x="170" y="670" width="120" height="60" as="geometry" />
        </mxCell>
        <mxCell id="ySBLS_aSn05otulw671X-22" value="&lt;div&gt;Beam compression &lt;br&gt;&lt;/div&gt;" style="rounded=1;whiteSpace=wrap;html=1;" vertex="1" parent="WIyWlLk6GJQsqaUBKTNV-1">
          <mxGeometry x="170" y="750" width="120" height="60" as="geometry" />
        </mxCell>
        <mxCell id="ySBLS_aSn05otulw671X-27" value="2 Telescope Interferometer" style="text;html=1;align=center;verticalAlign=middle;whiteSpace=wrap;rounded=0;" vertex="1" parent="WIyWlLk6GJQsqaUBKTNV-1">
          <mxGeometry x="200" y="40" width="90" height="50" as="geometry" />
        </mxCell>
        <mxCell id="ySBLS_aSn05otulw671X-42" value="" style="endArrow=classic;html=1;rounded=0;exitX=0.5;exitY=1;exitDx=0;exitDy=0;entryX=0.5;entryY=0;entryDx=0;entryDy=0;" edge="1" parent="WIyWlLk6GJQsqaUBKTNV-1" source="ySBLS_aSn05otulw671X-10">
          <mxGeometry width="50" height="50" relative="1" as="geometry">
            <mxPoint x="750" y="530" as="sourcePoint" />
            <mxPoint x="480" y="490" as="targetPoint" />
          </mxGeometry>
        </mxCell>
        <mxCell id="ySBLS_aSn05otulw671X-45" value="" style="endArrow=classic;html=1;rounded=0;exitX=0.5;exitY=1;exitDx=0;exitDy=0;entryX=0.5;entryY=0;entryDx=0;entryDy=0;" edge="1" parent="WIyWlLk6GJQsqaUBKTNV-1" source="ySBLS_aSn05otulw671X-8">
          <mxGeometry width="50" height="50" relative="1" as="geometry">
            <mxPoint x="490" y="440" as="sourcePoint" />
            <mxPoint x="229" y="490" as="targetPoint" />
          </mxGeometry>
        </mxCell>
        <mxCell id="ySBLS_aSn05otulw671X-46" value="" style="endArrow=classic;html=1;rounded=0;entryX=1;entryY=0.5;entryDx=0;entryDy=0;fillColor=#f8cecc;strokeColor=#b85450;" edge="1" parent="WIyWlLk6GJQsqaUBKTNV-1" target="ySBLS_aSn05otulw671X-10">
          <mxGeometry width="50" height="50" relative="1" as="geometry">
            <mxPoint x="650" y="330" as="sourcePoint" />
            <mxPoint x="800" y="480" as="targetPoint" />
            <Array as="points">
              <mxPoint x="650" y="400" />
            </Array>
          </mxGeometry>
        </mxCell>
        <mxCell id="ySBLS_aSn05otulw671X-47" value="&lt;div&gt;Vibration model&lt;/div&gt;&lt;div&gt;+&lt;/div&gt;&lt;div&gt;Vibration tracking with accelerometers&lt;br&gt;&lt;/div&gt;" style="rounded=0;whiteSpace=wrap;html=1;fillColor=#f8cecc;strokeColor=#b85450;" vertex="1" parent="WIyWlLk6GJQsqaUBKTNV-1">
          <mxGeometry x="590" y="240" width="120" height="90" as="geometry" />
        </mxCell>
        <mxCell id="ySBLS_aSn05otulw671X-56" value="" style="endArrow=classic;html=1;rounded=0;exitX=0.5;exitY=1;exitDx=0;exitDy=0;" edge="1" parent="WIyWlLk6GJQsqaUBKTNV-1" source="ySBLS_aSn05otulw671X-22" target="ySBLS_aSn05otulw671X-54">
          <mxGeometry width="50" height="50" relative="1" as="geometry">
            <mxPoint x="228.5" y="820" as="sourcePoint" />
            <mxPoint x="228.5" y="850" as="targetPoint" />
          </mxGeometry>
        </mxCell>
        <mxCell id="ySBLS_aSn05otulw671X-54" value="&lt;div&gt;Tip/tilt mirror&lt;br&gt;&lt;/div&gt;" style="rounded=1;whiteSpace=wrap;html=1;" vertex="1" parent="WIyWlLk6GJQsqaUBKTNV-1">
          <mxGeometry x="170" y="830" width="120" height="30" as="geometry" />
        </mxCell>
        <mxCell id="ySBLS_aSn05otulw671X-59" value="&lt;div&gt;Star&amp;nbsp;&lt;/div&gt;&lt;div&gt;separator&lt;/div&gt;" style="rounded=0;whiteSpace=wrap;html=1;" vertex="1" parent="WIyWlLk6GJQsqaUBKTNV-1">
          <mxGeometry x="170" y="490" width="120" height="60" as="geometry" />
        </mxCell>
        <mxCell id="ySBLS_aSn05otulw671X-60" value="&lt;div&gt;Star&amp;nbsp;&lt;/div&gt;&lt;div&gt;separator&lt;/div&gt;" style="rounded=0;whiteSpace=wrap;html=1;" vertex="1" parent="WIyWlLk6GJQsqaUBKTNV-1">
          <mxGeometry x="420" y="490" width="120" height="60" as="geometry" />
        </mxCell>
        <mxCell id="ySBLS_aSn05otulw671X-61" value="" style="endArrow=classic;html=1;rounded=0;exitX=0.5;exitY=1;exitDx=0;exitDy=0;fillColor=#dae8fc;strokeColor=#6c8ebf;" edge="1" parent="WIyWlLk6GJQsqaUBKTNV-1" source="ySBLS_aSn05otulw671X-59">
          <mxGeometry width="50" height="50" relative="1" as="geometry">
            <mxPoint x="226" y="580" as="sourcePoint" />
            <mxPoint x="160" y="610" as="targetPoint" />
            <Array as="points">
              <mxPoint x="230" y="610" />
            </Array>
          </mxGeometry>
        </mxCell>
        <mxCell id="ySBLS_aSn05otulw671X-62" value="&lt;div&gt;Adaptive &lt;br&gt;&lt;/div&gt;&lt;div&gt;Optics&lt;br&gt;&lt;/div&gt;" style="rounded=0;whiteSpace=wrap;html=1;" vertex="1" parent="WIyWlLk6GJQsqaUBKTNV-1">
          <mxGeometry x="40" y="580" width="120" height="60" as="geometry" />
        </mxCell>
        <mxCell id="ySBLS_aSn05otulw671X-65" value="" style="endArrow=classic;html=1;rounded=0;exitX=0.5;exitY=1;exitDx=0;exitDy=0;entryX=0.5;entryY=0;entryDx=0;entryDy=0;" edge="1" parent="WIyWlLk6GJQsqaUBKTNV-1" source="ySBLS_aSn05otulw671X-59" target="ySBLS_aSn05otulw671X-16">
          <mxGeometry width="50" height="50" relative="1" as="geometry">
            <mxPoint x="489.5" y="650" as="sourcePoint" />
            <mxPoint x="490" y="680" as="targetPoint" />
          </mxGeometry>
        </mxCell>
        <mxCell id="ySBLS_aSn05otulw671X-66" value="&lt;div&gt;FTS + Source&lt;/div&gt;" style="edgeLabel;html=1;align=center;verticalAlign=middle;resizable=0;points=[];" vertex="1" connectable="0" parent="ySBLS_aSn05otulw671X-65">
          <mxGeometry relative="1" as="geometry">
            <mxPoint as="offset" />
          </mxGeometry>
        </mxCell>
        <mxCell id="ySBLS_aSn05otulw671X-76" style="edgeStyle=orthogonalEdgeStyle;rounded=0;orthogonalLoop=1;jettySize=auto;html=1;exitX=0.5;exitY=1;exitDx=0;exitDy=0;entryX=0.5;entryY=0;entryDx=0;entryDy=0;" edge="1" parent="WIyWlLk6GJQsqaUBKTNV-1" source="ySBLS_aSn05otulw671X-77" target="ySBLS_aSn05otulw671X-78">
          <mxGeometry relative="1" as="geometry">
            <mxPoint x="479.75" y="760" as="targetPoint" />
          </mxGeometry>
        </mxCell>
        <mxCell id="ySBLS_aSn05otulw671X-77" value="&lt;div&gt;Beam transport&lt;br&gt;&lt;/div&gt;&lt;div&gt;&amp;amp;&lt;br&gt;&lt;/div&gt;&lt;div&gt;Main + BCDDL delay lines&lt;br&gt;&lt;/div&gt;" style="rounded=1;whiteSpace=wrap;html=1;" vertex="1" parent="WIyWlLk6GJQsqaUBKTNV-1">
          <mxGeometry x="420" y="670" width="120" height="60" as="geometry" />
        </mxCell>
        <mxCell id="ySBLS_aSn05otulw671X-78" value="&lt;div&gt;Beam compression &lt;br&gt;&lt;/div&gt;" style="rounded=1;whiteSpace=wrap;html=1;" vertex="1" parent="WIyWlLk6GJQsqaUBKTNV-1">
          <mxGeometry x="420" y="750" width="120" height="60" as="geometry" />
        </mxCell>
        <mxCell id="ySBLS_aSn05otulw671X-79" value="" style="endArrow=classic;html=1;rounded=0;exitX=0.5;exitY=1;exitDx=0;exitDy=0;" edge="1" parent="WIyWlLk6GJQsqaUBKTNV-1" source="ySBLS_aSn05otulw671X-78">
          <mxGeometry width="50" height="50" relative="1" as="geometry">
            <mxPoint x="479.25" y="820" as="sourcePoint" />
            <mxPoint x="479.25" y="830" as="targetPoint" />
          </mxGeometry>
        </mxCell>
        <mxCell id="ySBLS_aSn05otulw671X-82" value="&lt;div&gt;Adaptive &lt;br&gt;&lt;/div&gt;&lt;div&gt;Optics&lt;br&gt;&lt;/div&gt;" style="rounded=0;whiteSpace=wrap;html=1;" vertex="1" parent="WIyWlLk6GJQsqaUBKTNV-1">
          <mxGeometry x="590" y="580" width="120" height="60" as="geometry" />
        </mxCell>
        <mxCell id="ySBLS_aSn05otulw671X-85" value="" style="endArrow=classic;html=1;rounded=0;exitX=0.5;exitY=1;exitDx=0;exitDy=0;" edge="1" parent="WIyWlLk6GJQsqaUBKTNV-1" source="ySBLS_aSn05otulw671X-60">
          <mxGeometry width="50" height="50" relative="1" as="geometry">
            <mxPoint x="480.25" y="560" as="sourcePoint" />
            <mxPoint x="480" y="670" as="targetPoint" />
          </mxGeometry>
        </mxCell>
        <mxCell id="ySBLS_aSn05otulw671X-86" value="&lt;div&gt;FTS + Source&lt;/div&gt;" style="edgeLabel;html=1;align=center;verticalAlign=middle;resizable=0;points=[];" vertex="1" connectable="0" parent="ySBLS_aSn05otulw671X-85">
          <mxGeometry relative="1" as="geometry">
            <mxPoint as="offset" />
          </mxGeometry>
        </mxCell>
        <mxCell id="ySBLS_aSn05otulw671X-87" value="" style="endArrow=classic;html=1;rounded=0;exitX=0.5;exitY=1;exitDx=0;exitDy=0;fillColor=#dae8fc;strokeColor=#6c8ebf;entryX=0;entryY=0.5;entryDx=0;entryDy=0;" edge="1" parent="WIyWlLk6GJQsqaUBKTNV-1" source="ySBLS_aSn05otulw671X-60" target="ySBLS_aSn05otulw671X-82">
          <mxGeometry width="50" height="50" relative="1" as="geometry">
            <mxPoint x="420.75" y="570" as="sourcePoint" />
            <mxPoint x="351.75" y="630" as="targetPoint" />
            <Array as="points">
              <mxPoint x="480" y="610" />
            </Array>
          </mxGeometry>
        </mxCell>
        <mxCell id="ySBLS_aSn05otulw671X-144" style="edgeStyle=orthogonalEdgeStyle;rounded=0;orthogonalLoop=1;jettySize=auto;html=1;exitX=1;exitY=0.25;exitDx=0;exitDy=0;entryX=0.5;entryY=1;entryDx=0;entryDy=0;" edge="1" parent="WIyWlLk6GJQsqaUBKTNV-1" source="ySBLS_aSn05otulw671X-89" target="ySBLS_aSn05otulw671X-140">
          <mxGeometry relative="1" as="geometry" />
        </mxCell>
        <mxCell id="ySBLS_aSn05otulw671X-89" value="GRAVITY INSTRRUMENT" style="swimlane;horizontal=0;whiteSpace=wrap;html=1;" vertex="1" parent="WIyWlLk6GJQsqaUBKTNV-1">
          <mxGeometry x="130" y="820" width="450" height="460" as="geometry" />
        </mxCell>
        <mxCell id="ySBLS_aSn05otulw671X-133" style="edgeStyle=orthogonalEdgeStyle;rounded=0;orthogonalLoop=1;jettySize=auto;html=1;exitX=0.5;exitY=1;exitDx=0;exitDy=0;entryX=0.5;entryY=0;entryDx=0;entryDy=0;" edge="1" parent="ySBLS_aSn05otulw671X-89" source="ySBLS_aSn05otulw671X-48" target="ySBLS_aSn05otulw671X-49">
          <mxGeometry relative="1" as="geometry" />
        </mxCell>
        <mxCell id="ySBLS_aSn05otulw671X-48" value="SC&lt;div&gt;Beam combiner&lt;/div&gt;" style="rounded=0;whiteSpace=wrap;html=1;" vertex="1" parent="ySBLS_aSn05otulw671X-89">
          <mxGeometry x="90" y="320" width="120" height="40" as="geometry" />
        </mxCell>
        <mxCell id="ySBLS_aSn05otulw671X-132" style="edgeStyle=orthogonalEdgeStyle;rounded=0;orthogonalLoop=1;jettySize=auto;html=1;exitX=0.5;exitY=1;exitDx=0;exitDy=0;entryX=0.5;entryY=0;entryDx=0;entryDy=0;" edge="1" parent="ySBLS_aSn05otulw671X-89" source="ySBLS_aSn05otulw671X-109" target="ySBLS_aSn05otulw671X-69">
          <mxGeometry relative="1" as="geometry" />
        </mxCell>
        <mxCell id="ySBLS_aSn05otulw671X-109" value="&lt;div&gt;FT&lt;br&gt;&lt;/div&gt;&lt;div&gt;Beam combiner&lt;/div&gt;" style="rounded=0;whiteSpace=wrap;html=1;" vertex="1" parent="ySBLS_aSn05otulw671X-89">
          <mxGeometry x="250" y="320" width="120" height="40" as="geometry" />
        </mxCell>
        <mxCell id="ySBLS_aSn05otulw671X-49" value="&lt;div&gt;Spectograph&lt;/div&gt;&lt;div&gt;&amp;amp;&lt;br&gt;&lt;/div&gt;&lt;div&gt;&amp;nbsp;detector&lt;/div&gt;" style="rounded=0;whiteSpace=wrap;html=1;" vertex="1" parent="ySBLS_aSn05otulw671X-89">
          <mxGeometry x="90" y="370" width="120" height="60" as="geometry" />
        </mxCell>
        <mxCell id="ySBLS_aSn05otulw671X-69" value="&lt;div&gt;Spectograph&lt;/div&gt;&lt;div&gt;&amp;amp;&lt;br&gt;&lt;/div&gt;&lt;div&gt;&amp;nbsp;detector&lt;/div&gt;" style="rounded=0;whiteSpace=wrap;html=1;" vertex="1" parent="ySBLS_aSn05otulw671X-89">
          <mxGeometry x="250" y="370" width="120" height="60" as="geometry" />
        </mxCell>
        <mxCell id="ySBLS_aSn05otulw671X-128" style="edgeStyle=orthogonalEdgeStyle;rounded=0;orthogonalLoop=1;jettySize=auto;html=1;exitX=0.5;exitY=1;exitDx=0;exitDy=0;entryX=0.5;entryY=0;entryDx=0;entryDy=0;fillColor=#d5e8d4;strokeColor=#82b366;" edge="1" parent="ySBLS_aSn05otulw671X-89" source="ySBLS_aSn05otulw671X-67" target="ySBLS_aSn05otulw671X-48">
          <mxGeometry relative="1" as="geometry" />
        </mxCell>
        <mxCell id="ySBLS_aSn05otulw671X-67" value="&lt;div&gt;dOPD &amp;amp; polarization &lt;br&gt;&lt;/div&gt;&lt;div&gt;&amp;nbsp;control&lt;br&gt;&lt;/div&gt;" style="rounded=1;whiteSpace=wrap;html=1;" vertex="1" parent="ySBLS_aSn05otulw671X-89">
          <mxGeometry x="40" y="170" width="70" height="50" as="geometry" />
        </mxCell>
        <mxCell id="ySBLS_aSn05otulw671X-117" style="edgeStyle=orthogonalEdgeStyle;rounded=0;orthogonalLoop=1;jettySize=auto;html=1;exitX=0.5;exitY=1;exitDx=0;exitDy=0;entryX=0.5;entryY=0;entryDx=0;entryDy=0;fillColor=#d5e8d4;strokeColor=#82b366;" edge="1" parent="ySBLS_aSn05otulw671X-89" source="ySBLS_aSn05otulw671X-114" target="ySBLS_aSn05otulw671X-67">
          <mxGeometry relative="1" as="geometry" />
        </mxCell>
        <mxCell id="ySBLS_aSn05otulw671X-114" value="Fiber injection" style="rounded=1;whiteSpace=wrap;html=1;" vertex="1" parent="ySBLS_aSn05otulw671X-89">
          <mxGeometry x="40" y="120" width="70" height="40" as="geometry" />
        </mxCell>
        <mxCell id="ySBLS_aSn05otulw671X-118" style="edgeStyle=orthogonalEdgeStyle;rounded=0;orthogonalLoop=1;jettySize=auto;html=1;exitX=0.5;exitY=1;exitDx=0;exitDy=0;entryX=0.5;entryY=0;entryDx=0;entryDy=0;fillColor=#e1d5e7;strokeColor=#9673a6;" edge="1" parent="ySBLS_aSn05otulw671X-89" source="ySBLS_aSn05otulw671X-115" target="ySBLS_aSn05otulw671X-116">
          <mxGeometry relative="1" as="geometry" />
        </mxCell>
        <mxCell id="ySBLS_aSn05otulw671X-115" value="Fiber injection" style="rounded=1;whiteSpace=wrap;html=1;" vertex="1" parent="ySBLS_aSn05otulw671X-89">
          <mxGeometry x="120" y="120" width="70" height="40" as="geometry" />
        </mxCell>
        <mxCell id="ySBLS_aSn05otulw671X-130" style="edgeStyle=orthogonalEdgeStyle;rounded=0;orthogonalLoop=1;jettySize=auto;html=1;exitX=0.5;exitY=1;exitDx=0;exitDy=0;entryX=0.5;entryY=0;entryDx=0;entryDy=0;fillColor=#e1d5e7;strokeColor=#9673a6;" edge="1" parent="ySBLS_aSn05otulw671X-89" source="ySBLS_aSn05otulw671X-116" target="ySBLS_aSn05otulw671X-109">
          <mxGeometry relative="1" as="geometry">
            <Array as="points">
              <mxPoint x="160" y="250" />
              <mxPoint x="310" y="250" />
            </Array>
          </mxGeometry>
        </mxCell>
        <mxCell id="ySBLS_aSn05otulw671X-116" value="&lt;div&gt;dOPD &amp;amp; polarization &lt;br&gt;&lt;/div&gt;&lt;div&gt;&amp;nbsp;control&lt;br&gt;&lt;/div&gt;" style="rounded=1;whiteSpace=wrap;html=1;" vertex="1" parent="ySBLS_aSn05otulw671X-89">
          <mxGeometry x="120" y="170" width="70" height="50" as="geometry" />
        </mxCell>
        <mxCell id="ySBLS_aSn05otulw671X-119" value="&lt;div&gt;Tip/tilt mirror&lt;br&gt;&lt;/div&gt;" style="rounded=1;whiteSpace=wrap;html=1;" vertex="1" parent="ySBLS_aSn05otulw671X-89">
          <mxGeometry x="290" y="10" width="120" height="30" as="geometry" />
        </mxCell>
        <mxCell id="ySBLS_aSn05otulw671X-120" value="" style="endArrow=classic;html=1;rounded=0;fillColor=#d5e8d4;strokeColor=#82b366;strokeWidth=1;entryX=0.5;entryY=0;entryDx=0;entryDy=0;exitX=0.5;exitY=1;exitDx=0;exitDy=0;" edge="1" parent="ySBLS_aSn05otulw671X-89" target="ySBLS_aSn05otulw671X-124" source="ySBLS_aSn05otulw671X-119">
          <mxGeometry width="50" height="50" relative="1" as="geometry">
            <mxPoint x="323" y="40" as="sourcePoint" />
            <mxPoint x="323" y="90" as="targetPoint" />
            <Array as="points" />
          </mxGeometry>
        </mxCell>
        <mxCell id="ySBLS_aSn05otulw671X-121" value="" style="endArrow=classic;html=1;rounded=0;fillColor=#e1d5e7;strokeColor=#9673a6;strokeWidth=1;entryX=0.5;entryY=0;entryDx=0;entryDy=0;" edge="1" parent="ySBLS_aSn05otulw671X-89" target="ySBLS_aSn05otulw671X-126">
          <mxGeometry width="50" height="50" relative="1" as="geometry">
            <mxPoint x="351.5" y="43" as="sourcePoint" />
            <mxPoint x="343" y="90" as="targetPoint" />
            <Array as="points" />
          </mxGeometry>
        </mxCell>
        <mxCell id="ySBLS_aSn05otulw671X-129" style="edgeStyle=orthogonalEdgeStyle;rounded=0;orthogonalLoop=1;jettySize=auto;html=1;exitX=0.5;exitY=1;exitDx=0;exitDy=0;entryX=0.5;entryY=0;entryDx=0;entryDy=0;fillColor=#d5e8d4;strokeColor=#82b366;" edge="1" parent="ySBLS_aSn05otulw671X-89" source="ySBLS_aSn05otulw671X-122" target="ySBLS_aSn05otulw671X-48">
          <mxGeometry relative="1" as="geometry" />
        </mxCell>
        <mxCell id="ySBLS_aSn05otulw671X-122" value="&lt;div&gt;dOPD &amp;amp; polarization &lt;br&gt;&lt;/div&gt;&lt;div&gt;&amp;nbsp;control&lt;br&gt;&lt;/div&gt;" style="rounded=1;whiteSpace=wrap;html=1;" vertex="1" parent="ySBLS_aSn05otulw671X-89">
          <mxGeometry x="260" y="170" width="70" height="50" as="geometry" />
        </mxCell>
        <mxCell id="ySBLS_aSn05otulw671X-123" style="edgeStyle=orthogonalEdgeStyle;rounded=0;orthogonalLoop=1;jettySize=auto;html=1;exitX=0.5;exitY=1;exitDx=0;exitDy=0;entryX=0.5;entryY=0;entryDx=0;entryDy=0;fillColor=#d5e8d4;strokeColor=#82b366;" edge="1" parent="ySBLS_aSn05otulw671X-89" source="ySBLS_aSn05otulw671X-124" target="ySBLS_aSn05otulw671X-122">
          <mxGeometry relative="1" as="geometry" />
        </mxCell>
        <mxCell id="ySBLS_aSn05otulw671X-124" value="Fiber injection" style="rounded=1;whiteSpace=wrap;html=1;" vertex="1" parent="ySBLS_aSn05otulw671X-89">
          <mxGeometry x="260" y="120" width="70" height="40" as="geometry" />
        </mxCell>
        <mxCell id="ySBLS_aSn05otulw671X-125" style="edgeStyle=orthogonalEdgeStyle;rounded=0;orthogonalLoop=1;jettySize=auto;html=1;exitX=0.5;exitY=1;exitDx=0;exitDy=0;entryX=0.5;entryY=0;entryDx=0;entryDy=0;fillColor=#e1d5e7;strokeColor=#9673a6;" edge="1" parent="ySBLS_aSn05otulw671X-89" source="ySBLS_aSn05otulw671X-126" target="ySBLS_aSn05otulw671X-127">
          <mxGeometry relative="1" as="geometry" />
        </mxCell>
        <mxCell id="ySBLS_aSn05otulw671X-126" value="Fiber injection" style="rounded=1;whiteSpace=wrap;html=1;" vertex="1" parent="ySBLS_aSn05otulw671X-89">
          <mxGeometry x="340" y="120" width="70" height="40" as="geometry" />
        </mxCell>
        <mxCell id="ySBLS_aSn05otulw671X-131" style="edgeStyle=orthogonalEdgeStyle;rounded=0;orthogonalLoop=1;jettySize=auto;html=1;exitX=0.5;exitY=1;exitDx=0;exitDy=0;entryX=0.5;entryY=0;entryDx=0;entryDy=0;fillColor=#e1d5e7;strokeColor=#9673a6;" edge="1" parent="ySBLS_aSn05otulw671X-89" source="ySBLS_aSn05otulw671X-127" target="ySBLS_aSn05otulw671X-109">
          <mxGeometry relative="1" as="geometry">
            <Array as="points">
              <mxPoint x="370" y="250" />
              <mxPoint x="310" y="250" />
            </Array>
          </mxGeometry>
        </mxCell>
        <mxCell id="ySBLS_aSn05otulw671X-127" value="&lt;div&gt;dOPD &amp;amp; polarization &lt;br&gt;&lt;/div&gt;&lt;div&gt;&amp;nbsp;control&lt;br&gt;&lt;/div&gt;" style="rounded=1;whiteSpace=wrap;html=1;" vertex="1" parent="ySBLS_aSn05otulw671X-89">
          <mxGeometry x="340" y="170" width="70" height="50" as="geometry" />
        </mxCell>
        <mxCell id="ySBLS_aSn05otulw671X-92" value="&lt;div&gt;Sends commands&amp;nbsp;&lt;/div&gt;&lt;div&gt;to the BCDDLs&lt;/div&gt;&lt;div&gt;to correct vibrations&lt;br&gt; &lt;/div&gt;" style="endArrow=classic;html=1;rounded=0;exitX=1;exitY=0.445;exitDx=0;exitDy=0;entryX=1;entryY=0.5;entryDx=0;entryDy=0;exitPerimeter=0;" edge="1" parent="WIyWlLk6GJQsqaUBKTNV-1" source="ySBLS_aSn05otulw671X-47" target="ySBLS_aSn05otulw671X-77">
          <mxGeometry x="-0.3541" width="50" height="50" relative="1" as="geometry">
            <mxPoint x="750" y="650" as="sourcePoint" />
            <mxPoint x="800" y="600" as="targetPoint" />
            <Array as="points">
              <mxPoint x="750" y="280" />
              <mxPoint x="750" y="480" />
              <mxPoint x="750" y="700" />
            </Array>
            <mxPoint as="offset" />
          </mxGeometry>
        </mxCell>
        <mxCell id="ySBLS_aSn05otulw671X-93" value="" style="ellipse;whiteSpace=wrap;html=1;aspect=fixed;" vertex="1" parent="WIyWlLk6GJQsqaUBKTNV-1">
          <mxGeometry x="570" y="40" width="150" height="150" as="geometry" />
        </mxCell>
        <mxCell id="ySBLS_aSn05otulw671X-94" value="" style="ellipse;whiteSpace=wrap;html=1;aspect=fixed;" vertex="1" parent="WIyWlLk6GJQsqaUBKTNV-1">
          <mxGeometry x="620" y="100" width="50" height="50" as="geometry" />
        </mxCell>
        <mxCell id="ySBLS_aSn05otulw671X-95" value="" style="verticalLabelPosition=bottom;verticalAlign=top;html=1;shape=mxgraph.basic.star;fillColor=#d5e8d4;strokeColor=#82b366;" vertex="1" parent="WIyWlLk6GJQsqaUBKTNV-1">
          <mxGeometry x="630" y="110" width="10" height="20" as="geometry" />
        </mxCell>
        <mxCell id="ySBLS_aSn05otulw671X-96" value="" style="verticalLabelPosition=bottom;verticalAlign=top;html=1;shape=mxgraph.basic.star;fillColor=#e1d5e7;strokeColor=#9673a6;" vertex="1" parent="WIyWlLk6GJQsqaUBKTNV-1">
          <mxGeometry x="650" y="110" width="10" height="20" as="geometry" />
        </mxCell>
        <mxCell id="ySBLS_aSn05otulw671X-97" value="" style="verticalLabelPosition=bottom;verticalAlign=top;html=1;shape=mxgraph.basic.star;fillColor=#dae8fc;strokeColor=#6c8ebf;" vertex="1" parent="WIyWlLk6GJQsqaUBKTNV-1">
          <mxGeometry x="700" y="110" width="10" height="20" as="geometry" />
        </mxCell>
        <mxCell id="ySBLS_aSn05otulw671X-98" value="" style="endArrow=classic;startArrow=classic;html=1;rounded=0;" edge="1" parent="WIyWlLk6GJQsqaUBKTNV-1">
          <mxGeometry width="50" height="50" relative="1" as="geometry">
            <mxPoint x="622.5" y="89" as="sourcePoint" />
            <mxPoint x="662.5" y="89.5" as="targetPoint" />
          </mxGeometry>
        </mxCell>
        <mxCell id="ySBLS_aSn05otulw671X-99" value="" style="endArrow=classic;startArrow=classic;html=1;rounded=0;" edge="1" parent="WIyWlLk6GJQsqaUBKTNV-1">
          <mxGeometry width="50" height="50" relative="1" as="geometry">
            <mxPoint x="566.25" y="30" as="sourcePoint" />
            <mxPoint x="718.75" y="30" as="targetPoint" />
          </mxGeometry>
        </mxCell>
        <mxCell id="ySBLS_aSn05otulw671X-105" value="5.5&#39;&#39; in GC" style="edgeLabel;html=1;align=center;verticalAlign=middle;resizable=0;points=[];" vertex="1" connectable="0" parent="ySBLS_aSn05otulw671X-99">
          <mxGeometry relative="1" as="geometry">
            <mxPoint as="offset" />
          </mxGeometry>
        </mxCell>
        <mxCell id="ySBLS_aSn05otulw671X-101" value="2 ´´" style="text;html=1;align=center;verticalAlign=middle;whiteSpace=wrap;rounded=0;" vertex="1" parent="WIyWlLk6GJQsqaUBKTNV-1">
          <mxGeometry x="620" y="60" width="60" height="30" as="geometry" />
        </mxCell>
        <mxCell id="ySBLS_aSn05otulw671X-112" value="" style="endArrow=classic;html=1;rounded=0;fillColor=#e1d5e7;strokeColor=#9673a6;strokeWidth=1;entryX=0.5;entryY=0;entryDx=0;entryDy=0;exitX=0.5;exitY=1;exitDx=0;exitDy=0;" edge="1" parent="WIyWlLk6GJQsqaUBKTNV-1" source="ySBLS_aSn05otulw671X-54" target="ySBLS_aSn05otulw671X-115">
          <mxGeometry width="50" height="50" relative="1" as="geometry">
            <mxPoint x="240" y="860" as="sourcePoint" />
            <mxPoint x="240" y="910" as="targetPoint" />
            <Array as="points" />
          </mxGeometry>
        </mxCell>
        <mxCell id="ySBLS_aSn05otulw671X-111" value="" style="endArrow=classic;html=1;rounded=0;fillColor=#d5e8d4;strokeColor=#82b366;strokeWidth=1;entryX=0.5;entryY=0;entryDx=0;entryDy=0;exitX=0.5;exitY=1;exitDx=0;exitDy=0;" edge="1" parent="WIyWlLk6GJQsqaUBKTNV-1" source="ySBLS_aSn05otulw671X-54" target="ySBLS_aSn05otulw671X-114">
          <mxGeometry width="50" height="50" relative="1" as="geometry">
            <mxPoint x="220" y="860" as="sourcePoint" />
            <mxPoint x="220" y="910" as="targetPoint" />
            <Array as="points" />
          </mxGeometry>
        </mxCell>
        <mxCell id="ySBLS_aSn05otulw671X-136" value="&lt;div&gt;Metrology&lt;/div&gt;(measures dOPD)" style="rounded=0;whiteSpace=wrap;html=1;" vertex="1" parent="WIyWlLk6GJQsqaUBKTNV-1">
          <mxGeometry x="630" y="985" width="120" height="60" as="geometry" />
        </mxCell>
        <mxCell id="ySBLS_aSn05otulw671X-145" style="edgeStyle=orthogonalEdgeStyle;rounded=0;orthogonalLoop=1;jettySize=auto;html=1;exitX=0.5;exitY=0;exitDx=0;exitDy=0;" edge="1" parent="WIyWlLk6GJQsqaUBKTNV-1" source="ySBLS_aSn05otulw671X-140">
          <mxGeometry relative="1" as="geometry">
            <mxPoint x="540" y="700" as="targetPoint" />
            <Array as="points">
              <mxPoint x="710" y="700" />
            </Array>
          </mxGeometry>
        </mxCell>
        <mxCell id="ySBLS_aSn05otulw671X-140" value="&lt;div&gt;Fringe Tracker&lt;/div&gt;&lt;div&gt;Control loop&lt;br&gt;&lt;/div&gt;" style="rounded=0;whiteSpace=wrap;html=1;" vertex="1" parent="WIyWlLk6GJQsqaUBKTNV-1">
          <mxGeometry x="650" y="810" width="120" height="80" as="geometry" />
        </mxCell>
        <mxCell id="ySBLS_aSn05otulw671X-146" value="" style="endArrow=classic;html=1;rounded=0;exitX=0;exitY=0.5;exitDx=0;exitDy=0;entryX=1;entryY=0.5;entryDx=0;entryDy=0;" edge="1" parent="WIyWlLk6GJQsqaUBKTNV-1" source="ySBLS_aSn05otulw671X-136" target="ySBLS_aSn05otulw671X-127">
          <mxGeometry width="50" height="50" relative="1" as="geometry">
            <mxPoint x="460" y="1150" as="sourcePoint" />
            <mxPoint x="510" y="1100" as="targetPoint" />
          </mxGeometry>
        </mxCell>
      </root>
    </mxGraphModel>
  </diagram>
  <diagram id="1XX6LsC4t-Pbr1IBa5vH" name="Page-2">
    <mxGraphModel dx="1430" dy="763" grid="1" gridSize="10" guides="1" tooltips="1" connect="1" arrows="1" fold="1" page="1" pageScale="1" pageWidth="850" pageHeight="1100" math="1" shadow="0">
      <root>
        <mxCell id="0" />
        <mxCell id="1" parent="0" />
        <mxCell id="4gFxcGp09tbOZLl8RjOI-14" value="&lt;h1 style=&quot;margin-top: 0px;&quot;&gt;Atmospheric propagation&lt;br&gt;&lt;/h1&gt;&lt;p&gt;We construct the building blocks of atmospheric propagation by scaling in complexity. We evaluate the following EMF propagation cases:&lt;/p&gt;&lt;ol&gt;&lt;li&gt;EMF propagation without atmospheric effects. &lt;br&gt;&lt;/li&gt;&lt;li&gt;EMF propagation with atmospheric effects.&lt;/li&gt;&lt;/ol&gt;&lt;div&gt;We assume that each case&#39;s propagation distance is larger than the aperture.&lt;/div&gt;&lt;div&gt;&lt;br&gt;&lt;/div&gt;&lt;div&gt;$$ \Delta z &amp;gt; \frac{2D^2}{\lambda} $$&lt;/div&gt;&lt;div&gt;&lt;br&gt;&lt;/div&gt;&lt;div&gt;where \(z\) is the propagation distance, \(D\) is the aperture size and \(\lambda\) is the observed wavelength. &lt;br&gt;&lt;/div&gt;&lt;div&gt;&lt;br&gt;&lt;/div&gt;&lt;div&gt;We first describe the propagation of the natural guide star up to the start of the atmosphere:&lt;/div&gt;&lt;div&gt;&lt;br&gt;&lt;/div&gt;&lt;div&gt;$$ EMF =| F(U(x_1,y_1)) |^2 = | F( E_0 \delta(x - x_0)) |^2 = E_0 e^{2\pi i x_0 f} $$&lt;/div&gt;&lt;br&gt;&lt;div&gt;Which can be taken simply as a plane wavefront at the point where it meets the atmosphere. The incoming flux of the star can be taken from the magnitude of the observed star at the corresponding optical band at which the observation is made. It follows that the flux is:&lt;/div&gt;&lt;div&gt;&lt;br&gt;&lt;/div&gt;&lt;div&gt;$$ Flux = C_0 10^{-0.4 M} [ph/m^2/s] $$&lt;br&gt;&lt;/div&gt;&lt;div&gt;&lt;br&gt;&lt;/div&gt;&lt;div&gt;M is the magnitude, and C_0 is the zero point for the optical band.&lt;br&gt;&lt;/div&gt;&lt;div&gt;&lt;br&gt;&lt;/div&gt;&lt;div&gt;&lt;br&gt;&lt;/div&gt;&lt;div&gt;&lt;br&gt;&lt;/div&gt;" style="text;html=1;whiteSpace=wrap;overflow=hidden;rounded=0;" parent="1" vertex="1">
          <mxGeometry x="40" y="10" width="770" height="480" as="geometry" />
        </mxCell>
        <mxCell id="ROYveCE0f_Zy4mm4TuGA-1" value="&lt;div&gt;Aperture model&lt;/div&gt;" style="rounded=0;whiteSpace=wrap;html=1;" parent="1" vertex="1">
          <mxGeometry x="70" y="960" width="120" height="60" as="geometry" />
        </mxCell>
        <mxCell id="ROYveCE0f_Zy4mm4TuGA-3" value="&lt;div&gt;Source model&lt;/div&gt;&lt;div&gt;(point-like)&lt;/div&gt;" style="rounded=0;whiteSpace=wrap;html=1;" parent="1" vertex="1">
          <mxGeometry x="130" y="532.5" width="120" height="60" as="geometry" />
        </mxCell>
        <mxCell id="ROYveCE0f_Zy4mm4TuGA-11" value="" style="endArrow=classic;html=1;rounded=0;exitX=1;exitY=0.5;exitDx=0;exitDy=0;entryX=0;entryY=0.5;entryDx=0;entryDy=0;" parent="1" source="ROYveCE0f_Zy4mm4TuGA-3" target="ROYveCE0f_Zy4mm4TuGA-13" edge="1">
          <mxGeometry relative="1" as="geometry">
            <mxPoint x="200" y="414.5" as="sourcePoint" />
            <mxPoint x="300" y="414.5" as="targetPoint" />
          </mxGeometry>
        </mxCell>
        <mxCell id="ROYveCE0f_Zy4mm4TuGA-12" value="$$U(x_1,y_1)$$" style="edgeLabel;resizable=0;html=1;;align=center;verticalAlign=middle;" parent="ROYveCE0f_Zy4mm4TuGA-11" connectable="0" vertex="1">
          <mxGeometry relative="1" as="geometry" />
        </mxCell>
        <mxCell id="ROYveCE0f_Zy4mm4TuGA-13" value="&lt;div&gt;Rayleigh-Sommerfeld&lt;br&gt;&lt;/div&gt;&lt;div&gt;Franhofer approximation diffraction&lt;/div&gt;" style="rounded=0;whiteSpace=wrap;html=1;" parent="1" vertex="1">
          <mxGeometry x="360" y="517.5" width="120" height="90" as="geometry" />
        </mxCell>
        <mxCell id="ROYveCE0f_Zy4mm4TuGA-15" value="" style="endArrow=classic;html=1;rounded=0;exitX=1;exitY=0.5;exitDx=0;exitDy=0;entryX=0;entryY=0.5;entryDx=0;entryDy=0;" parent="1" source="ROYveCE0f_Zy4mm4TuGA-13" target="NT2jjb9f8KKLMn47RKQP-1" edge="1">
          <mxGeometry relative="1" as="geometry">
            <mxPoint x="510" y="414.5" as="sourcePoint" />
            <mxPoint x="460" y="415" as="targetPoint" />
          </mxGeometry>
        </mxCell>
        <mxCell id="NT2jjb9f8KKLMn47RKQP-1" value="&lt;div&gt;Flat wavefront&lt;/div&gt;&lt;div&gt;Flux =  C_0 10^{-0.4 M}&lt;/div&gt;" style="whiteSpace=wrap;html=1;aspect=fixed;" vertex="1" parent="1">
          <mxGeometry x="540" y="510" width="105" height="105" as="geometry" />
        </mxCell>
        <mxCell id="NT2jjb9f8KKLMn47RKQP-2" value="&lt;h1 style=&quot;margin-top: 0px;&quot;&gt;Imaging with a perfect telescope&lt;br&gt;&lt;/h1&gt;&lt;p&gt;We now know the field just before the aperture of the Telescope. The image formed by the telescope is given by the PSF (point-source function) of the telescope, which is simply the |F()|^2 of the aperture function of the telescope, A(x2,y2), where (x2,y2) are the coordinates at the aperture stop. Assuming a perfect circle with no central obstruction, the PSF takes a familiar shape:&lt;br&gt;&lt;/p&gt;&lt;p&gt;$$ PSF = | \int^{\infty}_{-\infty} A(-D/2, D/2) e^(2\pi i x f) dx |^2 \propto sinc^2(x)&amp;nbsp; $$&lt;/p&gt;&lt;p&gt;which is simply the 1D diffraction pattern of a circular aperture. In the case of a 2D aperture, we get a Bessel function integral of the first kind:&lt;/p&gt;&lt;p&gt;$$ I(\theta) = I_0 \left[\frac{2J_1(x)}{x}\right]^2 $$&lt;br&gt;&lt;/p&gt;&lt;p&gt;From which the Airy disk falls (first zero of the function).&lt;/p&gt;&lt;p&gt;The optical response of the system is simply the convolution of the field at the aperture with the &lt;br&gt;&lt;/p&gt;" style="text;html=1;whiteSpace=wrap;overflow=hidden;rounded=0;" vertex="1" parent="1">
          <mxGeometry x="40" y="660" width="760" height="270" as="geometry" />
        </mxCell>
        <mxCell id="NT2jjb9f8KKLMn47RKQP-3" style="edgeStyle=orthogonalEdgeStyle;rounded=0;orthogonalLoop=1;jettySize=auto;html=1;exitX=0.5;exitY=1;exitDx=0;exitDy=0;" edge="1" parent="1" source="NT2jjb9f8KKLMn47RKQP-2" target="NT2jjb9f8KKLMn47RKQP-2">
          <mxGeometry relative="1" as="geometry" />
        </mxCell>
      </root>
    </mxGraphModel>
  </diagram>
</mxfile>
